<?xml version="1.0" encoding="UTF-8"?>
<svg id="Layer_3" data-name="Layer 3" xmlns="http://www.w3.org/2000/svg" xmlns:xlink="http://www.w3.org/1999/xlink" viewBox="0 0 686.54 686.54">
  <defs>
    <style>
      .cls-1 {
        fill: #020f5a;
      }

      .cls-2 {
        fill: url(#linear-gradient-2);
      }

      .cls-3 {
        fill: url(#linear-gradient);
      }
    </style>
    <linearGradient id="linear-gradient" x1="88.54" y1="303.97" x2="597.99" y2="303.97" gradientUnits="userSpaceOnUse">
      <stop offset="0" stop-color="#cc368f"/>
      <stop offset=".5" stop-color="#912d73"/>
      <stop offset="1" stop-color="#692baa"/>
    </linearGradient>
    <linearGradient id="linear-gradient-2" x1="0" y1="343.27" x2="686.54" y2="343.27" xlink:href="#linear-gradient"/>
  </defs>
  <g id="Layer_1" data-name="Layer 1">
    <g>
      <g>
        <path class="cls-1" d="M121.66,447.8h-6.61l-19.9-30.1v30.1h-6.61v-40.37h6.61l19.9,30.05v-30.05h6.61v40.37Z"/>
        <path class="cls-1" d="M159.42,434.29h-24.42c.19,2.55,1.14,4.6,2.84,6.15,1.7,1.55,3.79,2.32,6.26,2.32,3.56,0,6.07-1.49,7.54-4.47h7.13c-.97,2.94-2.72,5.35-5.25,7.22-2.53,1.88-5.68,2.81-9.43,2.81-3.05,0-5.79-.69-8.21-2.06-2.42-1.37-4.31-3.31-5.69-5.8-1.37-2.49-2.06-5.38-2.06-8.67s.67-6.18,2-8.67c1.33-2.49,3.21-4.42,5.63-5.77,2.42-1.35,5.19-2.03,8.32-2.03s5.7.66,8.06,1.97c2.36,1.32,4.19,3.16,5.51,5.54,1.31,2.38,1.97,5.11,1.97,8.21,0,1.2-.08,2.28-.23,3.25ZM152.75,428.95c-.04-2.44-.91-4.39-2.61-5.86-1.7-1.47-3.81-2.2-6.32-2.2-2.28,0-4.23.72-5.86,2.18-1.62,1.45-2.59,3.41-2.9,5.89h17.69Z"/>
        <path class="cls-1" d="M171.83,446.27c-2.44-1.37-4.35-3.31-5.74-5.8-1.39-2.49-2.09-5.38-2.09-8.67s.71-6.13,2.15-8.64c1.43-2.51,3.38-4.45,5.86-5.8,2.47-1.35,5.24-2.03,8.3-2.03s5.82.68,8.29,2.03c2.47,1.35,4.43,3.29,5.86,5.8,1.43,2.51,2.15,5.39,2.15,8.64s-.73,6.13-2.2,8.64c-1.47,2.51-3.47,4.46-6,5.83-2.53,1.37-5.33,2.06-8.38,2.06s-5.74-.69-8.18-2.06ZM184.8,441.37c1.49-.81,2.7-2.03,3.63-3.65.93-1.62,1.39-3.6,1.39-5.92s-.45-4.28-1.33-5.89c-.89-1.6-2.07-2.81-3.54-3.63-1.47-.81-3.06-1.22-4.76-1.22s-3.28.41-4.73,1.22-2.6,2.02-3.45,3.63c-.85,1.61-1.28,3.57-1.28,5.89,0,3.44.88,6.1,2.64,7.98,1.76,1.88,3.97,2.81,6.64,2.81,1.7,0,3.3-.41,4.79-1.22Z"/>
        <path class="cls-1" d="M226.04,416.89c1.99,1.04,3.55,2.59,4.67,4.64,1.12,2.05,1.68,4.52,1.68,7.42v18.85h-6.55v-17.87c0-2.86-.72-5.06-2.15-6.58-1.43-1.53-3.38-2.29-5.86-2.29s-4.44.76-5.89,2.29c-1.45,1.53-2.18,3.72-2.18,6.58v17.87h-6.61v-31.96h6.61v3.65c1.08-1.31,2.46-2.34,4.15-3.07,1.68-.73,3.47-1.1,5.37-1.1,2.51,0,4.77.52,6.76,1.57Z"/>
        <path class="cls-1" d="M261.86,446.79c-2.17-.95-3.87-2.29-5.1-4.03-1.24-1.74-1.86-3.77-1.86-6.09h7.08c.15,1.74.84,3.17,2.06,4.29,1.22,1.12,2.93,1.68,5.13,1.68s4.06-.55,5.34-1.65c1.28-1.1,1.91-2.52,1.91-4.26,0-1.35-.4-2.46-1.19-3.31-.79-.85-1.78-1.51-2.96-1.97-1.18-.46-2.81-.97-4.9-1.51-2.63-.7-4.77-1.4-6.41-2.12-1.64-.71-3.05-1.83-4.21-3.33-1.16-1.51-1.74-3.52-1.74-6.03,0-2.32.58-4.35,1.74-6.09,1.16-1.74,2.78-3.07,4.87-4,2.09-.93,4.5-1.39,7.25-1.39,3.91,0,7.11.98,9.6,2.93,2.49,1.95,3.88,4.63,4.15,8.03h-7.31c-.12-1.47-.81-2.73-2.09-3.77-1.28-1.04-2.96-1.57-5.05-1.57-1.9,0-3.44.48-4.64,1.45-1.2.97-1.8,2.36-1.8,4.18,0,1.24.38,2.25,1.13,3.05.75.79,1.71,1.42,2.87,1.88,1.16.46,2.75.97,4.76,1.51,2.67.74,4.84,1.47,6.53,2.2s3.11,1.87,4.29,3.39c1.18,1.53,1.77,3.57,1.77,6.12,0,2.05-.55,3.98-1.65,5.8-1.1,1.82-2.71,3.28-4.81,4.38-2.11,1.1-4.59,1.65-7.45,1.65-2.71,0-5.14-.47-7.31-1.42Z"/>
        <path class="cls-1" d="M291.27,410.39c-.81-.81-1.22-1.82-1.22-3.02s.41-2.2,1.22-3.02,1.82-1.22,3.02-1.22,2.15.41,2.96,1.22c.81.81,1.22,1.82,1.22,3.02s-.41,2.2-1.22,3.02c-.81.81-1.8,1.22-2.96,1.22s-2.2-.41-3.02-1.22ZM297.53,415.84v31.96h-6.61v-31.96h6.61Z"/>
        <path class="cls-1" d="M325.69,416.8c1.91.99,3.41,2.21,4.5,3.68v-4.64h6.67v32.48c0,2.94-.62,5.56-1.86,7.86-1.24,2.3-3.03,4.11-5.37,5.42-2.34,1.31-5.13,1.97-8.38,1.97-4.33,0-7.93-1.01-10.79-3.04-2.86-2.03-4.49-4.78-4.87-8.27h6.55c.5,1.66,1.58,3.01,3.22,4.03,1.64,1.02,3.61,1.54,5.89,1.54,2.67,0,4.82-.81,6.47-2.44,1.64-1.63,2.47-3.98,2.47-7.08v-5.34c-1.12,1.51-2.64,2.78-4.55,3.8-1.91,1.02-4.09,1.54-6.53,1.54-2.78,0-5.33-.71-7.63-2.12-2.3-1.41-4.12-3.38-5.45-5.92-1.33-2.53-2-5.4-2-8.61s.67-6.05,2-8.53c1.33-2.47,3.15-4.4,5.45-5.77,2.3-1.37,4.84-2.06,7.63-2.06,2.47,0,4.67.49,6.58,1.48ZM328.82,426.05c-.91-1.62-2.1-2.86-3.57-3.71-1.47-.85-3.06-1.28-4.76-1.28s-3.29.42-4.76,1.25c-1.47.83-2.66,2.05-3.57,3.65-.91,1.6-1.36,3.51-1.36,5.71s.45,4.14,1.36,5.8c.91,1.66,2.11,2.93,3.6,3.8,1.49.87,3.06,1.31,4.73,1.31s3.29-.43,4.76-1.28c1.47-.85,2.66-2.1,3.57-3.74.91-1.64,1.36-3.57,1.36-5.77s-.46-4.12-1.36-5.74Z"/>
        <path class="cls-1" d="M368.44,416.89c1.99,1.04,3.55,2.59,4.67,4.64,1.12,2.05,1.68,4.52,1.68,7.42v18.85h-6.55v-17.87c0-2.86-.72-5.06-2.15-6.58-1.43-1.53-3.38-2.29-5.86-2.29s-4.44.76-5.89,2.29c-1.45,1.53-2.18,3.72-2.18,6.58v17.87h-6.61v-31.96h6.61v3.65c1.08-1.31,2.46-2.34,4.15-3.07,1.68-.73,3.47-1.1,5.37-1.1,2.51,0,4.77.52,6.76,1.57Z"/>
        <path class="cls-1" d="M388.05,446.96c-1.99-.91-3.57-2.15-4.73-3.71-1.16-1.57-1.78-3.31-1.86-5.25h6.84c.12,1.35.76,2.48,1.94,3.39,1.18.91,2.66,1.36,4.44,1.36s3.3-.36,4.32-1.07c1.02-.72,1.54-1.63,1.54-2.76,0-1.2-.57-2.09-1.71-2.67-1.14-.58-2.95-1.22-5.42-1.91-2.4-.66-4.35-1.3-5.86-1.91-1.51-.62-2.81-1.57-3.91-2.84-1.1-1.28-1.65-2.96-1.65-5.05,0-1.7.5-3.26,1.51-4.67,1.01-1.41,2.45-2.52,4.32-3.33,1.87-.81,4.03-1.22,6.47-1.22,3.63,0,6.56.92,8.79,2.76,2.22,1.84,3.41,4.34,3.57,7.51h-6.61c-.12-1.43-.7-2.57-1.74-3.42-1.04-.85-2.46-1.28-4.23-1.28s-3.07.33-4,.99c-.93.66-1.39,1.53-1.39,2.61,0,.85.31,1.57.93,2.15.62.58,1.37,1.03,2.26,1.36.89.33,2.2.75,3.94,1.25,2.32.62,4.22,1.25,5.71,1.88,1.49.64,2.77,1.58,3.86,2.81,1.08,1.24,1.64,2.88,1.68,4.93,0,1.82-.5,3.44-1.51,4.87-1.01,1.43-2.43,2.55-4.26,3.36-1.84.81-3.99,1.22-6.47,1.22s-4.77-.46-6.76-1.36Z"/>
        <path class="cls-1" d="M453.71,409.96c3.23,1.64,5.72,4,7.48,7.08,1.76,3.07,2.64,6.66,2.64,10.76s-.88,7.66-2.64,10.67c-1.76,3.02-4.25,5.33-7.48,6.93-3.23,1.61-6.99,2.41-11.28,2.41h-13.17v-40.31h13.17c4.29,0,8.05.82,11.28,2.47ZM453.28,438.58c2.51-2.55,3.77-6.15,3.77-10.79s-1.26-8.33-3.77-10.96c-2.52-2.63-6.13-3.94-10.85-3.94h-6.55v29.52h6.55c4.72,0,8.33-1.28,10.85-3.83Z"/>
        <path class="cls-1" d="M499.45,434.29h-24.42c.19,2.55,1.14,4.6,2.84,6.15,1.7,1.55,3.79,2.32,6.27,2.32,3.56,0,6.07-1.49,7.54-4.47h7.13c-.97,2.94-2.72,5.35-5.25,7.22-2.53,1.88-5.68,2.81-9.42,2.81-3.06,0-5.79-.69-8.21-2.06-2.42-1.37-4.31-3.31-5.69-5.8-1.37-2.49-2.06-5.38-2.06-8.67s.67-6.18,2-8.67c1.33-2.49,3.21-4.42,5.62-5.77,2.42-1.35,5.19-2.03,8.33-2.03s5.7.66,8.06,1.97c2.36,1.32,4.2,3.16,5.51,5.54,1.31,2.38,1.97,5.11,1.97,8.21,0,1.2-.08,2.28-.23,3.25ZM492.78,428.95c-.04-2.44-.91-4.39-2.61-5.86-1.7-1.47-3.81-2.2-6.33-2.2-2.28,0-4.23.72-5.86,2.18-1.62,1.45-2.59,3.41-2.9,5.89h17.69Z"/>
        <path class="cls-1" d="M517.37,416.83c1.93-1.01,4.12-1.51,6.55-1.51,2.79,0,5.33.69,7.63,2.06,2.3,1.37,4.11,3.3,5.42,5.77,1.31,2.48,1.97,5.32,1.97,8.53s-.66,6.08-1.97,8.61c-1.31,2.53-3.12,4.51-5.42,5.92-2.3,1.41-4.84,2.12-7.63,2.12-2.44,0-4.6-.49-6.49-1.48-1.9-.99-3.44-2.21-4.64-3.68v19.84h-6.61v-47.16h6.61v4.7c1.12-1.47,2.65-2.71,4.58-3.71ZM530.86,425.96c-.91-1.6-2.11-2.82-3.6-3.65-1.49-.83-3.08-1.25-4.78-1.25s-3.24.43-4.73,1.28c-1.49.85-2.69,2.09-3.6,3.71-.91,1.62-1.36,3.54-1.36,5.74s.45,4.13,1.36,5.77c.91,1.64,2.11,2.89,3.6,3.74,1.49.85,3.06,1.28,4.73,1.28s3.3-.44,4.78-1.31c1.49-.87,2.69-2.14,3.6-3.8.91-1.66,1.36-3.6,1.36-5.8s-.45-4.11-1.36-5.71Z"/>
        <path class="cls-1" d="M551.19,446.27c-2.44-1.37-4.35-3.31-5.74-5.8-1.39-2.49-2.09-5.38-2.09-8.67s.72-6.13,2.15-8.64c1.43-2.51,3.38-4.45,5.86-5.8,2.47-1.35,5.24-2.03,8.3-2.03s5.82.68,8.29,2.03c2.48,1.35,4.43,3.29,5.86,5.8,1.43,2.51,2.15,5.39,2.15,8.64s-.74,6.13-2.2,8.64c-1.47,2.51-3.47,4.46-6,5.83-2.53,1.37-5.33,2.06-8.38,2.06s-5.74-.69-8.18-2.06ZM564.15,441.37c1.49-.81,2.7-2.03,3.63-3.65.93-1.62,1.39-3.6,1.39-5.92s-.45-4.28-1.33-5.89c-.89-1.6-2.07-2.81-3.54-3.63-1.47-.81-3.05-1.22-4.76-1.22s-3.28.41-4.73,1.22c-1.45.81-2.6,2.02-3.45,3.63-.85,1.61-1.28,3.57-1.28,5.89,0,3.44.88,6.1,2.64,7.98,1.76,1.88,3.97,2.81,6.64,2.81,1.7,0,3.3-.41,4.79-1.22Z"/>
        <path class="cls-1" d="M590.23,421.24v17.69c0,1.2.28,2.06.84,2.58.56.52,1.52.78,2.87.78h4.06v5.51h-5.22c-2.98,0-5.26-.7-6.84-2.09-1.59-1.39-2.38-3.65-2.38-6.79v-17.69h-3.77v-5.39h3.77v-7.95h6.67v7.95h7.77v5.39h-7.77Z"/>
      </g>
      <path class="cls-3" d="M249.96,384.97h-29.01v-81.29c0-28.51-23.19-51.7-51.7-51.7s-51.7,23.19-51.7,51.7v55.9h-29.01v-55.9c0-44.5,36.21-80.71,80.71-80.71s80.71,36.21,80.71,80.71v81.29ZM517.29,222.96h-77.36v162.02h29.03v-132.99h48.33c28.5,0,51.7,23.19,51.7,51.7s-23.19,51.69-51.7,51.69h-23v29h23c44.49,0,80.7-36.21,80.7-80.7s-36.21-80.72-80.7-80.72ZM413.8,336.78c0-26.25-21.36-47.61-47.61-47.61h-42.47c-10.26,0-18.6-8.34-18.6-18.6s8.34-18.6,18.6-18.6h75.58v-29.01h-75.66c-26.22.04-47.53,21.38-47.53,47.61s21.36,47.61,47.61,47.61h42.47c10.08,0,18.6,8.52,18.6,18.6s-8.34,18.6-18.6,18.6h-75.58v29.01h75.58c26.25,0,47.61-21.36,47.61-47.61Z"/>
      <path class="cls-2" d="M343.27,686.54C153.99,686.54,0,532.55,0,343.27S153.99,0,343.27,0s343.27,153.99,343.27,343.27-153.99,343.27-343.27,343.27ZM343.27,18.84C164.38,18.84,18.84,164.38,18.84,343.27s145.54,324.43,324.43,324.43,324.43-145.54,324.43-324.43S522.16,18.84,343.27,18.84Z"/>
    </g>
  </g>
</svg>